<svg version="1.1" xmlns="http://www.w3.org/2000/svg" xmlns:xlink="http://www.w3.org/1999/xlink" width="131.088" height="98.453"><style xmlns="http://www.w3.org/1999/xhtml"></style><defs/><g transform="translate(0,0)"><g><rect fill="rgb(0,0,0)" stroke="none" x="0" y="0" width="131.088" height="98.453" fill-opacity="0"/></g><g transform="translate(0,0) matrix(1,0,0,1,10,10)"><g><g transform="translate(0,0) scale(1.010869891301087,1.0161659046374918) translate(1.221245e-15,-0.001)"><g><g><path fill="#02709F" stroke="#FFFFFF" stroke-dasharray="undefined" d="M 99.654 19.098 C 99.654 29.837 77.272 38.542 49.654 38.542 C 22.037 38.542 -0.343 29.837 -0.343 19.098 L -0.343 47.581 C -0.343 58.319 22.04 67.022 49.657 67.022 C 77.274 67.022 99.657 58.319 99.657 47.581 L 99.657 19.098 L 99.654 19.098 Z" stroke-miterlimit="10" stroke-width="1.0874"/></g><g><path fill="#02709F" stroke="#FFFFFF" stroke-dasharray="undefined" d="M 49.656 -0.342 C 77.27024 -0.342 99.656 8.36248 99.656 19.1 C 99.656 29.83752 77.27024 38.542 49.656 38.542 C 22.04176 38.542 -0.344 29.83752 -0.344 19.1 C -0.344 8.36248 22.04176 -0.342 49.656 -0.342 Z" stroke-miterlimit="10" stroke-width="1.0874"/></g><g><path fill="#FFFFFF" stroke="rgb(0,0,0)" stroke-dasharray="undefined" d="M 38.239 11.495 L 42.366 17.689 L 26.756 21.296 L 30.168 18.456 L 6.041 14.333 L 12.092 9.796 L 35.374 13.739 L 38.239 11.495 Z" stroke-opacity="0" stroke-miterlimit="10"/></g><g><path fill="#FFFFFF" stroke="rgb(0,0,0)" stroke-dasharray="undefined" d="M 60.204 26.513 L 57.387 20.126 L 71.468 17.312 L 69.026 19.502 L 92.494 23.511 L 86.861 28.016 L 63.535 23.633 L 60.204 26.513 Z" stroke-opacity="0" stroke-miterlimit="10"/></g><g><path fill="#FFFFFF" stroke="rgb(0,0,0)" stroke-dasharray="undefined" d="M 52.505 8.113 L 68.275 3.796 L 68.463 10.555 L 64.521 9.804 L 56.822 16.189 L 49.476 15.116 L 57.424 8.872 L 52.505 8.113 Z" stroke-opacity="0" stroke-miterlimit="10"/></g><g><path fill="#FFFFFF" stroke="rgb(0,0,0)" stroke-dasharray="undefined" d="M 45.743 32.335 L 30.728 35.149 L 30.165 28.204 L 34.482 29.142 L 42.748 22.082 L 50.066 23.32 L 41.24 31.016 L 45.743 32.335 Z" stroke-opacity="0" stroke-miterlimit="10"/></g></g></g></g></g></g></svg>